<mxfile host="app.diagrams.net" modified="2024-01-01T23:04:45.833Z" agent="Mozilla/5.0 (X11; Ubuntu; Linux x86_64; rv:120.0) Gecko/20100101 Firefox/120.0" etag="t1ZaxHs858Y5anI63KGc" version="22.1.16" type="github">
  <diagram name="Page-1" id="szuRNDVLsLvM3TpF7tbm">
    <mxGraphModel dx="2603" dy="822" grid="1" gridSize="10" guides="1" tooltips="1" connect="1" arrows="1" fold="1" page="1" pageScale="1" pageWidth="1169" pageHeight="827" math="0" shadow="0">
      <root>
        <mxCell id="0" />
        <mxCell id="1" parent="0" />
        <mxCell id="0a7FApHj3BCXqNyQYN4L-6" value="" style="rounded=1;whiteSpace=wrap;html=1;fillColor=#d5e8d4;strokeColor=#82b366;" parent="1" vertex="1">
          <mxGeometry x="-90" y="165" width="250" height="210" as="geometry" />
        </mxCell>
        <mxCell id="0a7FApHj3BCXqNyQYN4L-4" value="" style="rounded=1;whiteSpace=wrap;html=1;fillColor=#dae8fc;strokeColor=#6c8ebf;" parent="1" vertex="1">
          <mxGeometry x="280" y="165" width="250" height="435" as="geometry" />
        </mxCell>
        <mxCell id="xdS54QY0vX1um2URCebI-88" style="edgeStyle=orthogonalEdgeStyle;rounded=0;orthogonalLoop=1;jettySize=auto;html=1;entryX=1;entryY=0.5;entryDx=0;entryDy=0;" parent="1" source="0a7FApHj3BCXqNyQYN4L-2" target="xdS54QY0vX1um2URCebI-50" edge="1">
          <mxGeometry relative="1" as="geometry">
            <Array as="points">
              <mxPoint x="440" y="530" />
            </Array>
          </mxGeometry>
        </mxCell>
        <mxCell id="0a7FApHj3BCXqNyQYN4L-2" value="&lt;div&gt;Sterownik 5-cio osiowy CNC&lt;/div&gt;&lt;div&gt;&quot;5Axis Breakout Board&quot;&lt;br&gt;&lt;/div&gt;" style="rounded=1;whiteSpace=wrap;html=1;" parent="1" vertex="1">
          <mxGeometry x="310" y="230" width="190" height="80" as="geometry" />
        </mxCell>
        <mxCell id="0a7FApHj3BCXqNyQYN4L-8" style="edgeStyle=orthogonalEdgeStyle;rounded=0;orthogonalLoop=1;jettySize=auto;html=1;exitX=1;exitY=0.5;exitDx=0;exitDy=0;entryX=0;entryY=0.5;entryDx=0;entryDy=0;" parent="1" source="0a7FApHj3BCXqNyQYN4L-3" target="0a7FApHj3BCXqNyQYN4L-2" edge="1">
          <mxGeometry relative="1" as="geometry" />
        </mxCell>
        <mxCell id="0a7FApHj3BCXqNyQYN4L-11" value="Port równoległy&lt;br&gt;LPT" style="edgeLabel;html=1;align=center;verticalAlign=middle;resizable=0;points=[];" parent="0a7FApHj3BCXqNyQYN4L-8" vertex="1" connectable="0">
          <mxGeometry x="0.2149" y="3" relative="1" as="geometry">
            <mxPoint x="-19" y="-17" as="offset" />
          </mxGeometry>
        </mxCell>
        <mxCell id="0a7FApHj3BCXqNyQYN4L-3" value="&lt;br&gt;&lt;div&gt;&lt;b&gt;Mach3&lt;/b&gt;&lt;/div&gt;&lt;div style=&quot;line-height: 90%;&quot;&gt;Komputer stacjonarny,&lt;/div&gt;&lt;div&gt;Windows7x32bit&lt;br&gt;&lt;/div&gt;" style="rounded=1;whiteSpace=wrap;html=1;" parent="1" vertex="1">
          <mxGeometry x="-30" y="245" width="140" height="50" as="geometry" />
        </mxCell>
        <mxCell id="0a7FApHj3BCXqNyQYN4L-5" value="Rozdzielnica elektryczna" style="text;html=1;strokeColor=none;fillColor=none;align=center;verticalAlign=middle;whiteSpace=wrap;rounded=0;fontStyle=1" parent="1" vertex="1">
          <mxGeometry x="310" y="180" width="200" height="30" as="geometry" />
        </mxCell>
        <mxCell id="0a7FApHj3BCXqNyQYN4L-7" value="Warstwa wejsciowa &lt;b&gt;&lt;br&gt;Stanowisko operatorskie&lt;br&gt;&lt;/b&gt;" style="text;html=1;strokeColor=none;fillColor=none;align=center;verticalAlign=middle;whiteSpace=wrap;rounded=0;fontStyle=1" parent="1" vertex="1">
          <mxGeometry x="-60" y="180" width="200" height="30" as="geometry" />
        </mxCell>
        <mxCell id="xdS54QY0vX1um2URCebI-13" value="" style="edgeStyle=orthogonalEdgeStyle;rounded=0;orthogonalLoop=1;jettySize=auto;html=1;" parent="1" source="0a7FApHj3BCXqNyQYN4L-9" target="0a7FApHj3BCXqNyQYN4L-6" edge="1">
          <mxGeometry relative="1" as="geometry" />
        </mxCell>
        <mxCell id="0a7FApHj3BCXqNyQYN4L-9" value="Operator" style="shape=umlActor;verticalLabelPosition=bottom;verticalAlign=top;html=1;outlineConnect=0;" parent="1" vertex="1">
          <mxGeometry x="-210" y="220" width="50" height="100" as="geometry" />
        </mxCell>
        <mxCell id="0a7FApHj3BCXqNyQYN4L-33" value="" style="endArrow=classic;startArrow=classic;html=1;rounded=0;exitX=1;exitY=0.5;exitDx=0;exitDy=0;entryX=0;entryY=0.5;entryDx=0;entryDy=0;" parent="1" source="0a7FApHj3BCXqNyQYN4L-3" target="0a7FApHj3BCXqNyQYN4L-2" edge="1">
          <mxGeometry width="50" height="50" relative="1" as="geometry">
            <mxPoint x="180" y="440" as="sourcePoint" />
            <mxPoint x="230" y="390" as="targetPoint" />
          </mxGeometry>
        </mxCell>
        <mxCell id="xdS54QY0vX1um2URCebI-90" value="" style="edgeStyle=orthogonalEdgeStyle;rounded=0;orthogonalLoop=1;jettySize=auto;html=1;" parent="1" source="xdS54QY0vX1um2URCebI-1" target="xdS54QY0vX1um2URCebI-14" edge="1">
          <mxGeometry relative="1" as="geometry" />
        </mxCell>
        <mxCell id="xdS54QY0vX1um2URCebI-91" value="Obróbka" style="edgeLabel;html=1;align=center;verticalAlign=middle;resizable=0;points=[];" parent="xdS54QY0vX1um2URCebI-90" vertex="1" connectable="0">
          <mxGeometry x="-0.1077" y="3" relative="1" as="geometry">
            <mxPoint y="-19" as="offset" />
          </mxGeometry>
        </mxCell>
        <mxCell id="xdS54QY0vX1um2URCebI-1" value="" style="rounded=1;whiteSpace=wrap;html=1;fillColor=#d5e8d4;strokeColor=#82b366;" parent="1" vertex="1">
          <mxGeometry x="-90" y="400" width="290" height="450" as="geometry" />
        </mxCell>
        <mxCell id="xdS54QY0vX1um2URCebI-2" value="Warstwa wyjściowa&lt;br&gt;Frezarka CNC" style="text;html=1;strokeColor=none;fillColor=none;align=center;verticalAlign=middle;whiteSpace=wrap;rounded=0;fontStyle=1" parent="1" vertex="1">
          <mxGeometry x="-45" y="414" width="200" height="30" as="geometry" />
        </mxCell>
        <mxCell id="xdS54QY0vX1um2URCebI-78" style="edgeStyle=orthogonalEdgeStyle;rounded=0;orthogonalLoop=1;jettySize=auto;html=1;exitX=0;exitY=0.5;exitDx=0;exitDy=0;entryX=1;entryY=0.5;entryDx=0;entryDy=0;fontColor=#FFD966;fillColor=#ffe6cc;strokeColor=#d79b00;strokeWidth=2;" parent="1" source="xdS54QY0vX1um2URCebI-5" target="xdS54QY0vX1um2URCebI-70" edge="1">
          <mxGeometry relative="1" as="geometry">
            <Array as="points">
              <mxPoint x="220" y="355" />
              <mxPoint x="220" y="510" />
              <mxPoint x="180" y="510" />
              <mxPoint x="180" y="512" />
            </Array>
          </mxGeometry>
        </mxCell>
        <mxCell id="xdS54QY0vX1um2URCebI-5" value="Sterownik&lt;br&gt;oś X" style="rounded=1;whiteSpace=wrap;html=1;" parent="1" vertex="1">
          <mxGeometry x="300" y="335" width="80" height="40" as="geometry" />
        </mxCell>
        <mxCell id="xdS54QY0vX1um2URCebI-22" value="" style="edgeStyle=orthogonalEdgeStyle;rounded=0;orthogonalLoop=1;jettySize=auto;html=1;" parent="1" source="xdS54QY0vX1um2URCebI-6" target="xdS54QY0vX1um2URCebI-15" edge="1">
          <mxGeometry relative="1" as="geometry" />
        </mxCell>
        <mxCell id="xdS54QY0vX1um2URCebI-6" value="Wrzeciono" style="rounded=1;whiteSpace=wrap;html=1;" parent="1" vertex="1">
          <mxGeometry x="80" y="720" width="90" height="40" as="geometry" />
        </mxCell>
        <mxCell id="xdS54QY0vX1um2URCebI-19" value="" style="edgeStyle=orthogonalEdgeStyle;rounded=0;orthogonalLoop=1;jettySize=auto;html=1;" parent="1" target="xdS54QY0vX1um2URCebI-16" edge="1">
          <mxGeometry relative="1" as="geometry">
            <mxPoint x="80" y="517.0285714285714" as="sourcePoint" />
            <Array as="points">
              <mxPoint x="80" y="510" />
            </Array>
          </mxGeometry>
        </mxCell>
        <mxCell id="xdS54QY0vX1um2URCebI-20" value="" style="edgeStyle=orthogonalEdgeStyle;rounded=0;orthogonalLoop=1;jettySize=auto;html=1;" parent="1" source="xdS54QY0vX1um2URCebI-8" target="xdS54QY0vX1um2URCebI-17" edge="1">
          <mxGeometry relative="1" as="geometry" />
        </mxCell>
        <mxCell id="xdS54QY0vX1um2URCebI-65" style="edgeStyle=orthogonalEdgeStyle;rounded=0;orthogonalLoop=1;jettySize=auto;html=1;exitX=0.5;exitY=0;exitDx=0;exitDy=0;entryX=0.5;entryY=1;entryDx=0;entryDy=0;" parent="1" source="xdS54QY0vX1um2URCebI-8" target="xdS54QY0vX1um2URCebI-62" edge="1">
          <mxGeometry relative="1" as="geometry" />
        </mxCell>
        <mxCell id="xdS54QY0vX1um2URCebI-8" value="&lt;p style=&quot;line-height: 100%;&quot;&gt;&lt;font style=&quot;font-size: 10px;&quot;&gt;Silnik serwo-krokowy&lt;br&gt;Oś Z&lt;/font&gt;&lt;/p&gt;" style="rounded=1;whiteSpace=wrap;html=1;" parent="1" vertex="1">
          <mxGeometry x="80" y="576" width="90" height="40" as="geometry" />
        </mxCell>
        <mxCell id="xdS54QY0vX1um2URCebI-21" value="" style="edgeStyle=orthogonalEdgeStyle;rounded=0;orthogonalLoop=1;jettySize=auto;html=1;entryX=1;entryY=0.5;entryDx=0;entryDy=0;" parent="1" target="xdS54QY0vX1um2URCebI-18" edge="1">
          <mxGeometry relative="1" as="geometry">
            <mxPoint x="80" y="680" as="sourcePoint" />
          </mxGeometry>
        </mxCell>
        <mxCell id="xdS54QY0vX1um2URCebI-12" style="edgeStyle=orthogonalEdgeStyle;rounded=0;orthogonalLoop=1;jettySize=auto;html=1;exitX=1;exitY=0.5;exitDx=0;exitDy=0;entryX=0;entryY=0.75;entryDx=0;entryDy=0;" parent="1" source="xdS54QY0vX1um2URCebI-11" target="0a7FApHj3BCXqNyQYN4L-2" edge="1">
          <mxGeometry relative="1" as="geometry" />
        </mxCell>
        <mxCell id="xdS54QY0vX1um2URCebI-11" value="Przycisk awaryjnego&lt;br&gt;zatrzymania e-stop" style="rounded=1;whiteSpace=wrap;html=1;" parent="1" vertex="1">
          <mxGeometry x="-30" y="310" width="140" height="50" as="geometry" />
        </mxCell>
        <mxCell id="xdS54QY0vX1um2URCebI-14" value="Materiał" style="shape=cube;whiteSpace=wrap;html=1;boundedLbl=1;backgroundOutline=1;darkOpacity=0.05;darkOpacity2=0.1;" parent="1" vertex="1">
          <mxGeometry x="-240" y="595" width="95" height="60" as="geometry" />
        </mxCell>
        <mxCell id="xdS54QY0vX1um2URCebI-15" value="Obrót freza" style="rounded=1;whiteSpace=wrap;html=1;" parent="1" vertex="1">
          <mxGeometry x="-25" y="720" width="90" height="40" as="geometry" />
        </mxCell>
        <mxCell id="xdS54QY0vX1um2URCebI-61" style="edgeStyle=orthogonalEdgeStyle;rounded=0;orthogonalLoop=1;jettySize=auto;html=1;entryX=0;entryY=0.5;entryDx=0;entryDy=0;exitX=0;exitY=0.5;exitDx=0;exitDy=0;" parent="1" source="xdS54QY0vX1um2URCebI-16" target="xdS54QY0vX1um2URCebI-38" edge="1">
          <mxGeometry relative="1" as="geometry">
            <mxPoint x="-45" y="800" as="targetPoint" />
          </mxGeometry>
        </mxCell>
        <mxCell id="xdS54QY0vX1um2URCebI-16" value="Translacja X" style="rounded=1;whiteSpace=wrap;html=1;" parent="1" vertex="1">
          <mxGeometry x="-25" y="492" width="90" height="40" as="geometry" />
        </mxCell>
        <mxCell id="xdS54QY0vX1um2URCebI-57" style="edgeStyle=orthogonalEdgeStyle;rounded=0;orthogonalLoop=1;jettySize=auto;html=1;exitX=0;exitY=0.5;exitDx=0;exitDy=0;entryX=0;entryY=0.5;entryDx=0;entryDy=0;" parent="1" source="xdS54QY0vX1um2URCebI-17" target="xdS54QY0vX1um2URCebI-38" edge="1">
          <mxGeometry relative="1" as="geometry" />
        </mxCell>
        <mxCell id="xdS54QY0vX1um2URCebI-17" value="Translacja Y" style="rounded=1;whiteSpace=wrap;html=1;" parent="1" vertex="1">
          <mxGeometry x="-25" y="576" width="90" height="40" as="geometry" />
        </mxCell>
        <mxCell id="xdS54QY0vX1um2URCebI-56" style="edgeStyle=orthogonalEdgeStyle;rounded=0;orthogonalLoop=1;jettySize=auto;html=1;exitX=0;exitY=0.5;exitDx=0;exitDy=0;entryX=0;entryY=0.5;entryDx=0;entryDy=0;" parent="1" source="xdS54QY0vX1um2URCebI-18" target="xdS54QY0vX1um2URCebI-38" edge="1">
          <mxGeometry relative="1" as="geometry" />
        </mxCell>
        <mxCell id="xdS54QY0vX1um2URCebI-18" value="Translacja Z" style="rounded=1;whiteSpace=wrap;html=1;" parent="1" vertex="1">
          <mxGeometry x="-25" y="660" width="90" height="40" as="geometry" />
        </mxCell>
        <mxCell id="xdS54QY0vX1um2URCebI-81" style="edgeStyle=orthogonalEdgeStyle;rounded=0;orthogonalLoop=1;jettySize=auto;html=1;entryX=1;entryY=0.5;entryDx=0;entryDy=0;fillColor=#dae8fc;strokeColor=#6c8ebf;strokeWidth=2;" parent="1" source="xdS54QY0vX1um2URCebI-31" target="xdS54QY0vX1um2URCebI-8" edge="1">
          <mxGeometry relative="1" as="geometry">
            <Array as="points">
              <mxPoint x="240" y="414" />
              <mxPoint x="240" y="596" />
            </Array>
          </mxGeometry>
        </mxCell>
        <mxCell id="xdS54QY0vX1um2URCebI-31" value="Sterownik&lt;br&gt;oś Y" style="rounded=1;whiteSpace=wrap;html=1;" parent="1" vertex="1">
          <mxGeometry x="300" y="394" width="80" height="40" as="geometry" />
        </mxCell>
        <mxCell id="xdS54QY0vX1um2URCebI-55" style="edgeStyle=orthogonalEdgeStyle;rounded=0;orthogonalLoop=1;jettySize=auto;html=1;entryX=0.75;entryY=1;entryDx=0;entryDy=0;" parent="1" source="xdS54QY0vX1um2URCebI-38" target="0a7FApHj3BCXqNyQYN4L-2" edge="1">
          <mxGeometry relative="1" as="geometry" />
        </mxCell>
        <mxCell id="xdS54QY0vX1um2URCebI-38" value="Czujniki&lt;br&gt;krańcowe" style="rounded=1;whiteSpace=wrap;html=1;" parent="1" vertex="1">
          <mxGeometry x="80" y="780" width="90" height="40" as="geometry" />
        </mxCell>
        <mxCell id="xdS54QY0vX1um2URCebI-82" style="edgeStyle=orthogonalEdgeStyle;rounded=0;orthogonalLoop=1;jettySize=auto;html=1;entryX=1;entryY=0.5;entryDx=0;entryDy=0;fillColor=#f8cecc;strokeColor=#b85450;strokeWidth=2;" parent="1" source="xdS54QY0vX1um2URCebI-32" target="xdS54QY0vX1um2URCebI-73" edge="1">
          <mxGeometry relative="1" as="geometry">
            <Array as="points">
              <mxPoint x="260" y="470" />
              <mxPoint x="260" y="680" />
            </Array>
          </mxGeometry>
        </mxCell>
        <mxCell id="xdS54QY0vX1um2URCebI-32" value="Sterownik&lt;br&gt;oś Z" style="rounded=1;whiteSpace=wrap;html=1;" parent="1" vertex="1">
          <mxGeometry x="300" y="450" width="80" height="40" as="geometry" />
        </mxCell>
        <mxCell id="xdS54QY0vX1um2URCebI-84" style="edgeStyle=orthogonalEdgeStyle;rounded=0;orthogonalLoop=1;jettySize=auto;html=1;exitX=0;exitY=0.5;exitDx=0;exitDy=0;entryX=1;entryY=0.5;entryDx=0;entryDy=0;" parent="1" source="xdS54QY0vX1um2URCebI-50" target="xdS54QY0vX1um2URCebI-6" edge="1">
          <mxGeometry relative="1" as="geometry">
            <Array as="points">
              <mxPoint x="270" y="530" />
              <mxPoint x="270" y="740" />
            </Array>
          </mxGeometry>
        </mxCell>
        <mxCell id="xdS54QY0vX1um2URCebI-50" value="Przemiennik&lt;br&gt;częstotliwości" style="rounded=1;whiteSpace=wrap;html=1;" parent="1" vertex="1">
          <mxGeometry x="300" y="510" width="80" height="40" as="geometry" />
        </mxCell>
        <mxCell id="xdS54QY0vX1um2URCebI-80" style="edgeStyle=orthogonalEdgeStyle;rounded=0;orthogonalLoop=1;jettySize=auto;html=1;exitX=1;exitY=0.5;exitDx=0;exitDy=0;entryX=0;entryY=0.25;entryDx=0;entryDy=0;fillColor=#dae8fc;strokeColor=#6c8ebf;strokeWidth=2;" parent="1" source="xdS54QY0vX1um2URCebI-62" target="xdS54QY0vX1um2URCebI-31" edge="1">
          <mxGeometry relative="1" as="geometry">
            <Array as="points">
              <mxPoint x="230" y="565" />
              <mxPoint x="230" y="404" />
            </Array>
          </mxGeometry>
        </mxCell>
        <mxCell id="xdS54QY0vX1um2URCebI-62" value="Enkoder" style="rounded=1;whiteSpace=wrap;html=1;" parent="1" vertex="1">
          <mxGeometry x="95" y="545" width="60" height="20" as="geometry" />
        </mxCell>
        <mxCell id="xdS54QY0vX1um2URCebI-72" style="edgeStyle=orthogonalEdgeStyle;rounded=0;orthogonalLoop=1;jettySize=auto;html=1;entryX=0.5;entryY=1;entryDx=0;entryDy=0;" parent="1" source="xdS54QY0vX1um2URCebI-70" target="xdS54QY0vX1um2URCebI-71" edge="1">
          <mxGeometry relative="1" as="geometry" />
        </mxCell>
        <mxCell id="xdS54QY0vX1um2URCebI-70" value="&lt;p style=&quot;line-height: 100%;&quot;&gt;&lt;font style=&quot;font-size: 10px;&quot;&gt;Silnik serwo-krokowy&lt;br&gt;Oś Z&lt;/font&gt;&lt;/p&gt;" style="rounded=1;whiteSpace=wrap;html=1;" parent="1" vertex="1">
          <mxGeometry x="80" y="492" width="90" height="40" as="geometry" />
        </mxCell>
        <mxCell id="xdS54QY0vX1um2URCebI-77" style="edgeStyle=orthogonalEdgeStyle;rounded=0;orthogonalLoop=1;jettySize=auto;html=1;exitX=1;exitY=0.5;exitDx=0;exitDy=0;entryX=0;entryY=0.25;entryDx=0;entryDy=0;fontColor=#FFD966;fillColor=#ffe6cc;strokeColor=#d79b00;strokeWidth=2;" parent="1" source="xdS54QY0vX1um2URCebI-71" target="xdS54QY0vX1um2URCebI-5" edge="1">
          <mxGeometry relative="1" as="geometry">
            <Array as="points">
              <mxPoint x="155" y="470" />
              <mxPoint x="210" y="470" />
              <mxPoint x="210" y="345" />
            </Array>
          </mxGeometry>
        </mxCell>
        <mxCell id="xdS54QY0vX1um2URCebI-71" value="Enkoder" style="rounded=1;whiteSpace=wrap;html=1;" parent="1" vertex="1">
          <mxGeometry x="95" y="461" width="60" height="20" as="geometry" />
        </mxCell>
        <mxCell id="xdS54QY0vX1um2URCebI-75" style="edgeStyle=orthogonalEdgeStyle;rounded=0;orthogonalLoop=1;jettySize=auto;html=1;entryX=0.5;entryY=1;entryDx=0;entryDy=0;" parent="1" source="xdS54QY0vX1um2URCebI-73" target="xdS54QY0vX1um2URCebI-74" edge="1">
          <mxGeometry relative="1" as="geometry" />
        </mxCell>
        <mxCell id="xdS54QY0vX1um2URCebI-73" value="&lt;p style=&quot;line-height: 100%;&quot;&gt;&lt;font style=&quot;font-size: 10px;&quot;&gt;Silnik serwo-krokowy&lt;br&gt;Oś Z&lt;/font&gt;&lt;/p&gt;" style="rounded=1;whiteSpace=wrap;html=1;" parent="1" vertex="1">
          <mxGeometry x="80" y="660" width="90" height="40" as="geometry" />
        </mxCell>
        <mxCell id="xdS54QY0vX1um2URCebI-83" style="edgeStyle=orthogonalEdgeStyle;rounded=0;orthogonalLoop=1;jettySize=auto;html=1;exitX=1;exitY=0.5;exitDx=0;exitDy=0;entryX=0;entryY=0.25;entryDx=0;entryDy=0;fillColor=#f8cecc;strokeColor=#b85450;strokeWidth=2;" parent="1" source="xdS54QY0vX1um2URCebI-74" target="xdS54QY0vX1um2URCebI-32" edge="1">
          <mxGeometry relative="1" as="geometry">
            <Array as="points">
              <mxPoint x="250" y="640" />
              <mxPoint x="250" y="460" />
            </Array>
          </mxGeometry>
        </mxCell>
        <mxCell id="xdS54QY0vX1um2URCebI-74" value="Enkoder" style="rounded=1;whiteSpace=wrap;html=1;" parent="1" vertex="1">
          <mxGeometry x="95" y="629" width="60" height="20" as="geometry" />
        </mxCell>
        <mxCell id="xdS54QY0vX1um2URCebI-85" value="" style="endArrow=classic;startArrow=classic;html=1;rounded=0;exitX=1;exitY=0.5;exitDx=0;exitDy=0;entryX=0.5;entryY=1;entryDx=0;entryDy=0;" parent="1" source="xdS54QY0vX1um2URCebI-5" target="0a7FApHj3BCXqNyQYN4L-2" edge="1">
          <mxGeometry width="50" height="50" relative="1" as="geometry">
            <mxPoint x="390" y="390" as="sourcePoint" />
            <mxPoint x="440" y="340" as="targetPoint" />
            <Array as="points">
              <mxPoint x="405" y="355" />
            </Array>
          </mxGeometry>
        </mxCell>
        <mxCell id="xdS54QY0vX1um2URCebI-86" value="" style="endArrow=classic;startArrow=classic;html=1;rounded=0;exitX=1;exitY=0.5;exitDx=0;exitDy=0;entryX=0.568;entryY=1.011;entryDx=0;entryDy=0;entryPerimeter=0;" parent="1" source="xdS54QY0vX1um2URCebI-31" target="0a7FApHj3BCXqNyQYN4L-2" edge="1">
          <mxGeometry width="50" height="50" relative="1" as="geometry">
            <mxPoint x="390" y="365" as="sourcePoint" />
            <mxPoint x="415" y="320" as="targetPoint" />
            <Array as="points">
              <mxPoint x="418" y="414" />
            </Array>
          </mxGeometry>
        </mxCell>
        <mxCell id="xdS54QY0vX1um2URCebI-87" value="" style="endArrow=classic;startArrow=classic;html=1;rounded=0;exitX=1;exitY=0.5;exitDx=0;exitDy=0;entryX=0.632;entryY=1;entryDx=0;entryDy=0;entryPerimeter=0;" parent="1" source="xdS54QY0vX1um2URCebI-32" target="0a7FApHj3BCXqNyQYN4L-2" edge="1">
          <mxGeometry width="50" height="50" relative="1" as="geometry">
            <mxPoint x="400" y="375" as="sourcePoint" />
            <mxPoint x="425" y="330" as="targetPoint" />
            <Array as="points">
              <mxPoint x="430" y="470" />
            </Array>
          </mxGeometry>
        </mxCell>
      </root>
    </mxGraphModel>
  </diagram>
</mxfile>
